<svg xmlns="http://www.w3.org/2000/svg" viewBox="0 0 500 500" opacity="0.04">
  <circle cx="250" cy="250" r="220" fill="none" stroke="#0B1F3A" stroke-width="8"/>
  <circle cx="250" cy="250" r="50" fill="none" stroke="#0B1F3A" stroke-width="6"/>
  <circle cx="250" cy="250" r="15" fill="#0B1F3A"/>
  <!-- 24 spokes -->
  <g stroke="#0B1F3A" stroke-width="4">
    <line x1="250" y1="250" x2="250" y2="30"/>
    <line x1="250" y1="250" x2="341.7" y2="41.5"/>
    <line x1="250" y1="250" x2="413.3" y2="95.7"/>
    <line x1="250" y1="250" x2="450" y2="180.3"/>
    <line x1="250" y1="250" x2="470" y2="250"/>
    <line x1="250" y1="250" x2="450" y2="319.7"/>
    <line x1="250" y1="250" x2="413.3" y2="404.3"/>
    <line x1="250" y1="250" x2="341.7" y2="458.5"/>
    <line x1="250" y1="250" x2="250" y2="470"/>
    <line x1="250" y1="250" x2="158.3" y2="458.5"/>
    <line x1="250" y1="250" x2="86.7" y2="404.3"/>
    <line x1="250" y1="250" x2="50" y2="319.7"/>
    <line x1="250" y1="250" x2="30" y2="250"/>
    <line x1="250" y1="250" x2="50" y2="180.3"/>
    <line x1="250" y1="250" x2="86.7" y2="95.7"/>
    <line x1="250" y1="250" x2="158.3" y2="41.5"/>
    <line x1="250" y1="250" x2="296" y2="35"/>
    <line x1="250" y1="250" x2="380" y2="65"/>
    <line x1="250" y1="250" x2="435" y2="135"/>
    <line x1="250" y1="250" x2="465" y2="215"/>
    <line x1="250" y1="250" x2="465" y2="285"/>
    <line x1="250" y1="250" x2="435" y2="365"/>
    <line x1="250" y1="250" x2="380" y2="435"/>
    <line x1="250" y1="250" x2="296" y2="465"/>
  </g>
</svg>
